PathFileType	4	(X/Y/Z)	P:\Projects\LMB_grand_challenge_database\project_only\opensim\experimental_data\SixthCompetition/DM_ngait_og5_new.trc
DataRate	CameraRate	NumFrames	NumMarkers	Units	OrigDataRate	OrigDataStartFrame	OrigNumFrames
120	120	8	68	mm	120	42	342
Frame#	Time	Sternum			Neck			R_Shoulder			L_Shoulder			Xiphoid			Thoracic			R_Asis			L_Asis			R_Psis			L_Psis			Lumbar			R_Elbow			R_ElbowMedial			R_ShoulderAnterior			R_ShoulderPosterior			R_Wrist			R_Radius			R_Ulna			L_Elbow			L_ElbowMedial			L_ShoulderAnterior			L_ShoulderPosterior			L_Wrist			L_Ulna			L_Radius			L_Thigh_Superior			L_Thigh_Inferior			L_Thigh_Lateral			L_Knee_Lateral			L_Knee_Medial			L_Patella			L_Shank_Superior			L_Shank_Inferior			L_Shank_Lateral			L_Ankle_Lateral			L_Ankle_Medial			R_Thigh_Superior			R_Thigh_Inferior			R_Thigh_Lateral			R_Knee_Lateral			R_Knee_Medial			R_Patella			R_Shank_Superior			R_Shank_Inferior			R_Shank_Lateral			R_Ankle_Lateral			RankleMedial			R_Heel			R_Toe			R_Midfoot_Medial			R_Midfoot_Lateral			R_Hindfoot			R_Midfoot_Superior			R_ToeMedial			R_ToeLateral			L_Heel			L_Toe			L_Midfoot_Medial			L_Midfoot_Lateral			L_Hindfoot			L_Midfoot_Superior			L_ToeMedial			L_ToeLateral			Oglobal			Sacral			Xglobal			Yglobal			Zglobal			
		X1	Y1	Z1	X2	Y2	Z2	X3	Y3	Z3	X4	Y4	Z4	X5	Y5	Z5	X6	Y6	Z6	X7	Y7	Z7	X8	Y8	Z8	X9	Y9	Z9	X10	Y10	Z10	X11	Y11	Z11	X12	Y12	Z12	X13	Y13	Z13	X14	Y14	Z14	X15	Y15	Z15	X16	Y16	Z16	X17	Y17	Z17	X18	Y18	Z18	X19	Y19	Z19	X20	Y20	Z20	X21	Y21	Z21	X22	Y22	Z22	X23	Y23	Z23	X24	Y24	Z24	X25	Y25	Z25	X26	Y26	Z26	X27	Y27	Z27	X28	Y28	Z28	X29	Y29	Z29	X30	Y30	Z30	X31	Y31	Z31	X32	Y32	Z32	X33	Y33	Z33	X34	Y34	Z34	X35	Y35	Z35	X36	Y36	Z36	X37	Y37	Z37	X38	Y38	Z38	X39	Y39	Z39	X40	Y40	Z40	X41	Y41	Z41	X42	Y42	Z42	X43	Y43	Z43	X44	Y44	Z44	X45	Y45	Z45	X46	Y46	Z46	X47	Y47	Z47	X48	Y48	Z48	X49	Y49	Z49	X50	Y50	Z50	X51	Y51	Z51	X52	Y52	Z52	X53	Y53	Z53	X54	Y54	Z54	X55	Y55	Z55	X56	Y56	Z56	X57	Y57	Z57	X58	Y58	Z58	X59	Y59	Z59	X60	Y60	Z60	X61	Y61	Z61	X62	Y62	Z62	X63	Y63	Z63	X64	Y64	Z64	X65	Y65	Z65	X66	Y66	Z66	X67	Y67	Z67	X68	Y68	Z68	

43	1.966667	-941.501	1464.88	123.933	-776.886	1385.48	121.156	-841.08	1418.79	294.812	-870.669	1424.81	-49.5606	-762.0069999999999	1217.13	129.884	-1031.82	1278.49	124.017	-859.361	984.345	269.439	-836.495	991.3200000000001	-5.66293	-1051.53	1030.42	147.317	-1046.73	1027.29	69.4178	-1047.48	1078.48	111.717	-907.302	1110.88	401.185	-0	0	0	-0	0	0	-0	0	0	-834.475	840.327	395.853	-826.553	850.383	354.102	-883.109	843.8630000000001	401.03	-859.7140000000001	1091.02	-151.685	-0	0	0	-0	0	0	-0	0	0	-737.617	848.912	-132.965	-782.0549999999999	854.402	-153.815	-751.298	866.2089999999999	-87.4027	-899.03	813.027	-34.8985	-871.141	593.342	21.4274	-825.203	685.106	42.2467	-0	0	0	-0	0	0	-840.451	504.048	85.999	-914.231	441.354	14.9664	-987.304	180.114	17.0658	-922.852	297.461	89.0317	-0	0	0	-0	0	0	-911.032	805.102	302.513	-816.898	609.139	278.975	-797.0119999999999	750.2619999999999	296.263	-0	0	0	-0	0	0	-708.196	531.122	228.292	-869.245	446.745	285.516	-928.294	247.812	269.76	-818.622	345.143	213.72	-0	0	0	-0	0	0	-1032.06	149.538	199.502	-760.832	37.2329	258.812	-827.553	45.1293	189.888	-863.653	43.9405	301.458	-963.016	80.79859999999999	267.711	-863.271	146.404	240.425	-786.678	38.0126	208.791	-812.898	37.2804	296.563	-1082.12	64.6691	72.2225	-782.248	53.1712	51.8505	-816.801	34.4073	98.77030000000001	-822.01	36.8631	2.89553	-0	0	0	-915.989	119.702	60.4806	-816.801	34.4073	98.77030000000001	-822.01	36.8631	2.89553	-0	0	0	-1049.13	1028.85	108.367	-200	0	0	-0	0	200	-0	200	0	
44	1.975	-933.776	1464.79	123.468	-769.453	1385.14	121.403	-834.222	1418.37	294.947	-862.362	1424.9	-49.785	-754.676	1216.71	130.043	-1024.39	1278.58	123.542	-852.402	984.431	269.658	-828.506	991.232	-5.50829	-1044.19	1030.27	146.846	-1038.98	1027.2	68.9027	-1039.97	1078.38	111.102	-901.197	1110.73	401.321	-0	0	0	-0	0	0	-0	0	0	-827.689	840.0170000000001	397.165	-819.335	850.663	355.395	-876.297	843.7809999999999	401.809	-845.869	1091.43	-151.667	-0	0	0	-0	0	0	-0	0	0	-719.865	851.223	-131.037	-764.126	856.075	-152.509	-734.664	868.311	-85.8579	-891.247	811.9299999999999	-33.5612	-866.7670000000001	592.824	21.7106	-820.617	684.604	42.4716	-0	0	0	-0	0	0	-837.311	503.085	85.80589999999999	-911.847	441.204	15.0935	-986.2569999999999	180.283	17.113	-921.039	297.079	88.92059999999999	-0	0	0	-0	0	0	-903.194	804.937	302.985	-807.626	610.024	278.823	-788.996	751.349	296.418	-0	0	0	-0	0	0	-697.991	534.162	228.4	-855.381	444.117	285.279	-905.681	242.75	270.173	-799.941	344.57	214.635	-0	0	0	-0	0	0	-1003.61	138.666	199.397	-728.593	39.876	262.357	-794.224	44.1417	193.121	-831.4450000000001	42.4458	304.315	-932.503	74.039	269.038	-835.824	144.111	241.983	-753.707	39.3016	212.209	-781.001	37.8821	299.713	-1082.01	64.8698	72.26390000000001	-782.059	53.0241	51.8259	-816.826	34.2025	98.6544	-821.943	36.7546	2.89291	-0	0	0	-915.692	119.499	60.6616	-816.826	34.2025	98.6544	-821.943	36.7546	2.89291	-0	0	0	-1041.58	1028.74	107.874	-200	0	0	-0	0	200	-0	200	0	
45	1.983333	-926.008	1464.59	123.223	-761.927	1384.64	121.63	-827.1180000000001	1417.84	294.943	-853.4829999999999	1424.66	-49.5115	-747.572	1216.06	130.262	-1016.81	1278.44	123.145	-845.145	984.134	269.773	-820.851	990.856	-5.35407	-1036.73	1030.1	146.695	-1031.43	1026.93	68.684	-1032.44	1078.15	110.929	-894.6799999999999	1110.38	401.554	-0	0	0	-0	0	0	-0	0	0	-820.794	839.676	398.481	-811.853	850.028	357.048	-869.1660000000001	843.3	402.396	-831.739	1091.84	-151.364	-0	0	0	-0	0	0	-0	0	0	-702.357	853.503	-128.842	-746.329	857.726	-151.258	-718.244	870.111	-83.7961	-883.434	810.601	-32.1804	-862.509	592.151	22.0604	-815.456	683.915	43.2838	-0	0	0	-0	0	0	-834.135	502.428	85.4532	-909.1	440.771	15.1559	-985.499	180.354	17.3588	-919.9450000000001	297.045	89.32040000000001	-0	0	0	-0	0	0	-896.2569999999999	805.17	303.518	-798.888	610.485	278.726	-781.1180000000001	751.869	296.429	-0	0	0	-0	0	0	-688.05	536.851	228.603	-841.721	441.241	284.978	-882.744	237.628	270.62	-781.26	343.571	215.437	-0	0	0	-0	0	0	-975.013	128.444	199.489	-696.475	43.1096	265.819	-761.554	43.3528	196.162	-799.694	41.2484	307.037	-902.092	68.0022	270.286	-808.176	141.891	243.444	-721.026	41.0428	215.546	-749.008	39.0349	302.742	-1081.86	65.0313	72.355	-781.896	52.7723	51.936	-817.307	34.2783	97.4842	-821.88	36.6361	2.92256	-0	0	0	-915.393	119.431	60.7648	-817.307	34.2783	97.4842	-821.88	36.6361	2.92256	-0	0	0	-1034.08	1028.52	107.69	-200	0	0	-0	0	200	-0	200	0	
46	1.991667	-918.288	1464.23	122.937	-754.372	1383.99	121.837	-820.042	1417.34	295.097	-844.707	1424.24	-49.0834	-740.124	1215.53	130.307	-1009.23	1278.28	122.815	-838.102	983.611	270.058	-813.2619999999999	990.433	-5.01019	-1029.38	1029.97	146.655	-1023.95	1026.74	68.59780000000001	-1024.94	1077.98	110.899	-888.064	1110.03	401.695	-0	0	0	-0	0	0	-0	0	0	-813.857	839.193	399.649	-803.979	850.3049999999999	357.634	-862.182	842.842	403.158	-817.796	1092.07	-151.186	-0	0	0	-0	0	0	-0	0	0	-685.4450000000001	855.399	-126.824	-728.55	859.355	-149.865	-702.051	872.0549999999999	-82.2761	-877.033	809.826	-32.0027	-858.191	591.641	22.2208	-810.298	682.39	43.4957	-0	0	0	-0	0	0	-831.273	501.372	85.6598	-906.67	440.588	15.2	-984.534	180.507	17.433	-918.501	296.613	89.3253	-0	0	0	-0	0	0	-888.859	804.9299999999999	303.763	-790.542	610.806	278.592	-773.485	752.151	296.388	-0	0	0	-0	0	0	-678.486	539.323	228.567	-828.3	438.172	284.627	-859.67	232.721	271.108	-762.538	343.007	216.067	-0	0	0	-0	0	0	-946.098	118.723	199.753	-664.033	47.715	269.023	-728.899	43.6269	198.712	-767.829	40.4345	309.286	-870.972	62.2047	271.536	-780.587	140.161	244.93	-688.619	43.3277	218.7	-717.1420000000001	40.6403	305.469	-1081.84	65.2086	72.4375	-781.8099999999999	52.6206	51.9734	-817.078	34.2956	97.3815	-821.749	36.5274	2.90027	-0	0	0	-915.205	119.369	60.8199	-817.078	34.2956	97.3815	-821.749	36.5274	2.90027	-0	0	0	-1026.67	1028.35	107.626	-200	0	0	-0	0	200	-0	200	0	
47	2	-910.561	1463.88	122.837	-746.797	1383.17	122.096	-813.168	1416.86	295.329	-836.4	1423.85	-49.0984	-732.6319999999999	1214.73	130.378	-1001.61	1278.04	122.62	-830.855	983.34	270.305	-805.692	989.787	-4.83458	-1021.93	1029.72	146.601	-1016.44	1026.44	68.4363	-1017.41	1077.7	110.772	-881.472	1109.64	402.116	-0	0	0	-0	0	0	-0	0	0	-806.6799999999999	838.769	400.804	-796.783	849.996	359.02	-855.26	842.602	404.049	-802.949	1092.21	-149.969	-0	0	0	-0	0	0	-0	0	0	-667.859	858.129	-124.657	-711.203	860.991	-148.486	-686.032	873.925	-80.0522	-871.687	809.652	-32.5814	-853.687	590.836	22.6603	-805.143	681.133	43.8638	-0	0	0	-0	0	0	-828.919	501.057	85.5342	-903.937	440.051	15.453	-983.793	180.721	17.5384	-916.644	296.203	89.3809	-0	0	0	-0	0	0	-881.629	804.4930000000001	304.245	-782.785	610.8920000000001	278.481	-766.0549999999999	752.26	296.357	-0	0	0	-0	0	0	-669.61	541.4640000000001	228.595	-815.035	434.918	284.241	-836.218	227.792	271.218	-744.355	341.873	216.745	-0	0	0	-0	0	0	-917.091	109.491	200.053	-632.788	52.1729	272.124	-696.708	44.3367	201.58	-736.495	40.2077	311.818	-839.923	56.9748	273.068	-752.989	138.796	246.608	-656.197	46.2091	221.761	-685.52	42.7371	308.406	-1081.76	65.42	72.3989	-781.753	52.5416	51.877	-817.236	34.0897	97.3182	-821.744	36.4453	2.8604	-0	0	0	-915.0359999999999	119.264	60.8307	-817.236	34.0897	97.3182	-821.744	36.4453	2.8604	-0	0	0	-1019.19	1028.08	107.519	-200	0	0	-0	0	200	-0	200	0	
48	2.008333	-902.711	1463.38	122.779	-739.213	1382.43	122.384	-805.722	1416.14	295.535	-827.792	1423.23	-48.5785	-725.311	1214.17	130.764	-993.956	1277.66	122.502	-823.497	982.88	270.503	-798.04	989.111	-4.55314	-1014.48	1029.31	146.669	-1008.87	1026.01	68.37569999999999	-1009.81	1077.28	110.734	-874.1900000000001	1109.11	402.202	-0	0	0	-0	0	0	-0	0	0	-799.361	838.285	401.831	-789.645	848.518	360.592	-847.77	842.044	404.617	-789.302	1092.4	-149.39	-0	0	0	-0	0	0	-0	0	0	-650.971	860.494	-122.201	-694.029	862.6660000000001	-146.646	-670.1319999999999	875.912	-77.9803	-865.878	809.394	-32.6867	-849.748	590.254	22.7319	-800.264	680.169	44.2083	-0	0	0	-0	0	0	-825.91	499.064	86.43340000000001	-901.5119999999999	439.744	15.6883	-983.228	180.89	17.7337	-914.903	295.861	89.0668	-0	0	0	-0	0	0	-874.188	803.835	304.581	-775.202	610.644	278.178	-759.115	751.948	296.237	-0	0	0	-0	0	0	-661.149	543.2430000000001	228.708	-802.198	431.623	284.106	-813.203	223.36	271.864	-726.164	341.592	217.44	-0	0	0	-0	0	0	-887.4450000000001	100.938	200.554	-601.6559999999999	56.9978	275.228	-664.2329999999999	46.3722	204.438	-704.8630000000001	40.6695	314.298	-808.694	52.4535	274.378	-725.7619999999999	138.086	248.491	-624.252	49.9373	224.595	-654.17	45.5097	311.2	-1081.66	65.506	72.4757	-781.527	52.1291	52.0628	-817.183	33.8996	97.2749	-821.6660000000001	36.3597	2.85103	-0	0	0	-914.849	119.218	60.9058	-817.183	33.8996	97.2749	-821.6660000000001	36.3597	2.85103	-0	0	0	-1011.67	1027.66	107.522	-200	0	0	-0	0	200	-0	200	0	
49	2.016667	-894.851	1462.86	122.8	-731.465	1381.83	122.929	-798.607	1415.6	295.827	-819.4349999999999	1422.49	-48.5117	-717.747	1213.36	131.198	-986.359	1277.2	122.502	-815.9299999999999	982.222	270.586	-790.446	988.529	-4.31265	-1006.88	1028.85	146.785	-1001.33	1025.52	68.40049999999999	-1002.17	1076.79	110.9	-867.3339999999999	1108.54	402.823	-0	0	0	-0	0	0	-0	0	0	-791.768	837.655	402.847	-782.336	848.329	360.931	-840.454	841.6799999999999	405.505	-775.742	1092.43	-148.532	-0	0	0	-0	0	0	-0	0	0	-634.499	862.706	-119.609	-677.165	864.226	-144.87	-654.341	877.995	-75.8664	-859.614	808.683	-32.3799	-845.434	589.571	22.8988	-795.155	679.252	44.3972	-0	0	0	-0	0	0	-823.135	497.785	87	-899.3099999999999	438.707	14.6172	-982.377	180.956	17.8886	-913.326	295.507	89.4076	-0	0	0	-0	0	0	-867.912	803.434	305.466	-767.84	610.029	277.677	-752.17	751.4299999999999	296.217	-0	0	0	-0	0	0	-653.272	544.87	229.026	-789.587	428.005	283.813	-790.102	219.233	272.624	-708.263	341.325	218.408	-0	0	0	-0	0	0	-857.804	93.14749999999999	201.234	-570.92	62.5708	277.939	-632.389	48.7386	206.917	-673.461	41.89	316.546	-777.537	48.6474	275.892	-698.218	137.872	249.994	-592.893	54.3594	227.409	-622.982	48.7523	313.716	-1081.51	65.7208	72.4629	-781.293	51.9367	52.1103	-816.855	33.7501	97.3365	-821.756	36.2118	2.83506	-0	0	0	-914.7329999999999	119.153	60.9893	-816.855	33.7501	97.3365	-821.756	36.2118	2.83506	-0	0	0	-1004.11	1027.18	107.593	-200	0	0	-0	0	200	-0	200	0	
50	2.025	-886.958	1462.24	122.775	-723.532	1381.02	123.295	-791.407	1414.75	296.092	-811.126	1421.89	-48.2327	-710.073	1212.66	131.544	-978.5890000000001	1276.64	122.507	-808.42	981.5650000000001	270.685	-782.777	987.804	-3.94252	-999.3	1028.35	146.84	-993.734	1024.99	68.4598	-994.492	1076.26	110.993	-859.857	1107.95	403.091	-0	0	0	-0	0	0	-0	0	0	-784.346	837.112	403.747	-774.771	847.728	361.883	-832.67	840.977	406.276	-762.803	1092.68	-147.865	-0	0	0	-0	0	0	-0	0	0	-618.26	865.146	-117.112	-660.4930000000001	865.997	-143.138	-639.064	879.841	-73.35080000000001	-853.2380000000001	807.9160000000001	-32.0501	-841.21	588.8049999999999	23.3248	-789.852	678.581	44.7126	-0	0	0	-0	0	0	-820.256	496.809	86.77070000000001	-896.415	438.988	15.744	-981.577	181.104	18.0069	-911.5599999999999	295.196	89.3039	-0	0	0	-0	0	0	-861.23	802.755	305.935	-761.106	609.292	277.424	-745.5170000000001	750.604	296.154	-0	0	0	-0	0	0	-645.676	545.8819999999999	228.976	-776.654	424.326	283.599	-766.992	215.63	273.453	-691.0170000000001	341.087	219.437	-0	0	0	-0	0	0	-827.974	86.2236	202.218	-540.605	68.90940000000001	280.389	-600.688	52.7712	208.395	-641.605	44.0452	317.95	-745.9880000000001	45.4229	277.198	-670.357	138.818	251.401	-561.879	59.5543	229.596	-591.893	53.2418	316.191	-1081.48	66.0805	72.4267	-781.265	51.7569	52.1487	-816.818	33.6603	97.31440000000001	-821.717	36.1305	2.84753	-0	0	0	-914.241	119.015	60.8976	-816.818	33.6603	97.31440000000001	-821.717	36.1305	2.84753	-0	0	0	-996.5170000000001	1026.67	107.65	-200	0	0	-0	0	200	-0	200	0	
